<mxfile host="app.diagrams.net" modified="2023-08-28T03:12:05.428Z" agent="Mozilla/5.0 (Windows NT 10.0; Win64; x64) AppleWebKit/537.36 (KHTML, like Gecko) Chrome/116.0.0.0 Safari/537.36" version="21.6.8" etag="yV_g1kcTCJAtXZNwUEZU" type="github">
  <diagram name="Page-1" id="3tiW8JoozUIdaX25TYI6">
    <mxGraphModel>
      <root>
        <mxCell id="0" />
        <mxCell id="1" parent="0" />
      </root>
    </mxGraphModel>
  </diagram>
</mxfile>
